<svg xmlns="http://www.w3.org/2000/svg" viewBox="0 0 447.07 79.6"><defs><style>.cls-1{fill:#fff;}.cls-2{fill:#66c9d7;}</style></defs><g id="Layer_2" data-name="Layer 2"><g id="Layer_1-2" data-name="Layer 1"><path class="cls-1" d="M78.07,55.39l2.15-3.31h.9c3.15,2.73,8.77,5,15.39,5,6.89,0,10.72-1.84,10.72-5.72,0-9.83-27.11-4.89-27.11-18.5,0-5.78,6.09-10.51,17.76-10.51,5.83,0,11.56,1.1,15.55,3.78l-1.89,3.31h-.94c-2.84-2.41-7.41-3.73-12.72-3.73-7.3,0-10,1.89-10,4.73,0,8.2,27.79,4.52,27.79,18.39,0,8-8.4,11.62-19.18,11.62C89,60.44,82.59,58.49,78.07,55.39Z"/><path class="cls-1" d="M161.3,23V59.75h-8.56V42.2H133.45V59.75h-8.56V23h8.56V38.84h19.29V23Z"/><path class="cls-1" d="M173.59,23h30.22l1.47,3.36H182.16V38.84H199.5V42.2H182.16V56.39h24.7l-1.47,3.36h-31.8Z"/><path class="cls-1" d="M247.37,56.39l-1.47,3.36H216.1V23h8.41V56.39Z"/><path class="cls-1" d="M286.3,56.39l-1.47,3.36H255V23h8.4V56.39Z"/><path class="cls-2" d="M309.35,7.28V79.6H297.9V7.28H0V0H447.07V7.28Z"/><path class="cls-1" d="M328.44,23h30.22l1.47,3.36H337V38.84h17.34V42.2H337V56.39H361.7l-1.47,3.36H328.44Z"/><path class="cls-1" d="M399.48,59.75,390,43.88H379.36V59.75H371V23h21.54c11,0,16,3,16,10,0,5.42-3,9-9.46,10.36l11,16.44ZM379.36,40.52h13.13c4.05,0,6.62-1.94,6.62-5.89V32c0-4-2.57-5.68-6.62-5.68H379.36Z"/></g></g></svg>